<svg width="16" height="16" viewBox="0 0 16 16" fill="none" xmlns="http://www.w3.org/2000/svg">
<rect width="16" height="16" fill="#FBF6E8"/>
<path d="M3.769 10.895C3.769 11.1203 3.78633 11.285 3.821 11.389C3.85567 11.4843 3.92067 11.5493 4.016 11.584C4.12 11.6187 4.28467 11.636 4.51 11.636H4.952C5.628 11.636 6.213 11.4583 6.707 11.103C7.201 10.739 7.53033 10.2493 7.695 9.634C7.695 9.61667 7.71233 9.608 7.747 9.608C7.76433 9.608 7.78167 9.61667 7.799 9.634C7.825 9.64267 7.838 9.65133 7.838 9.66C7.76 10.518 7.721 11.233 7.721 11.805C7.721 11.8743 7.70367 11.9263 7.669 11.961C7.643 11.987 7.59533 12 7.526 12H1.39C1.37267 12 1.364 11.974 1.364 11.922C1.364 11.87 1.37267 11.844 1.39 11.844C1.66733 11.844 1.86667 11.8223 1.988 11.779C2.118 11.7357 2.20467 11.6533 2.248 11.532C2.3 11.402 2.326 11.207 2.326 10.947V4.928C2.326 4.668 2.3 4.47733 2.248 4.356C2.20467 4.23467 2.118 4.15233 1.988 4.109C1.858 4.057 1.65867 4.031 1.39 4.031C1.37267 4.031 1.364 4.005 1.364 3.953C1.364 3.901 1.37267 3.875 1.39 3.875L2.053 3.888C2.45167 3.90533 2.781 3.914 3.041 3.914C3.301 3.914 3.63033 3.90533 4.029 3.888L4.692 3.875C4.718 3.875 4.731 3.901 4.731 3.953C4.731 4.005 4.718 4.031 4.692 4.031C4.42333 4.031 4.224 4.057 4.094 4.109C3.964 4.15233 3.87733 4.239 3.834 4.369C3.79067 4.49033 3.769 4.681 3.769 4.941V10.895ZM8.52598 12C8.49998 12 8.48698 11.974 8.48698 11.922C8.48698 11.87 8.49998 11.844 8.52598 11.844C8.82932 11.844 9.05032 11.8223 9.18898 11.779C9.32765 11.7357 9.41865 11.6533 9.46198 11.532C9.51398 11.402 9.53998 11.207 9.53998 10.947V4.928C9.53998 4.668 9.51832 4.47733 9.47498 4.356C9.43165 4.23467 9.34498 4.15233 9.21498 4.109C9.08498 4.057 8.88565 4.031 8.61698 4.031C8.59098 4.031 8.57798 4.005 8.57798 3.953C8.57798 3.901 8.59098 3.875 8.61698 3.875H14.129C14.2157 3.875 14.259 3.914 14.259 3.992L14.285 5.721C14.285 5.73833 14.259 5.75133 14.207 5.76C14.1637 5.76867 14.1377 5.76 14.129 5.734C13.9903 5.23133 13.7563 4.85867 13.427 4.616C13.0977 4.37333 12.6643 4.252 12.127 4.252H11.737C11.477 4.252 11.2863 4.30833 11.165 4.421C11.0437 4.53367 10.983 4.707 10.983 4.941V10.895C10.983 11.1637 11.0177 11.363 11.087 11.493C11.1563 11.623 11.2863 11.714 11.477 11.766C11.6677 11.818 11.9667 11.844 12.374 11.844C12.3913 11.844 12.4 11.87 12.4 11.922C12.4 11.974 12.3913 12 12.374 12C12.0187 12 11.7413 11.9957 11.542 11.987L10.216 11.974L9.24098 11.987C9.06765 11.9957 8.82932 12 8.52598 12ZM13.479 9.244C13.479 8.89733 13.3403 8.62433 13.063 8.425C12.7943 8.217 12.4087 8.113 11.906 8.113H10.294V7.749H11.919C12.4217 7.749 12.803 7.66233 13.063 7.489C13.3317 7.307 13.466 7.06 13.466 6.748C13.466 6.73067 13.492 6.722 13.544 6.722C13.596 6.722 13.622 6.73067 13.622 6.748L13.609 7.931C13.609 8.20833 13.6133 8.41633 13.622 8.555L13.635 9.244C13.635 9.27 13.609 9.283 13.557 9.283C13.505 9.283 13.479 9.27 13.479 9.244Z" fill="#4A4A4A"/>
</svg>
